PathFileType	4	(X/Y/Z)	/Users/niels/Desktop/University/Third Semester/Perception and Action/Exam/Gymnastics Motion Tracking/Code for Gym Tracking/Analyzed Data/Webcam_Backflip/id2002_2_trajectory_Sports2D/id2002_2_trajectory_Sports2D_px_person00.trc
DataRate	CameraRate	NumFrames	NumMarkers	Units	OrigDataRate	OrigDataStartFrame	OrigNumFrames
29.798657718120804	29.798657718120804	12	22	m	29.798657718120804	18	149
Frame#	Time	Hip			RHip			RKnee			RAnkle			RBigToe			RSmallToe			RHeel			LHip			LKnee			LAnkle			LBigToe			LSmallToe			LHeel			Neck			Head			Nose			RShoulder			RElbow			RWrist			LShoulder			LElbow			LWrist		
		X1	Y1	Z1	X2	Y2	Z2	X3	Y3	Z3	X4	Y4	Z4	X5	Y5	Z5	X6	Y6	Z6	X7	Y7	Z7	X8	Y8	Z8	X9	Y9	Z9	X10	Y10	Z10	X11	Y11	Z11	X12	Y12	Z12	X13	Y13	Z13	X14	Y14	Z14	X15	Y15	Z15	X16	Y16	Z16	X17	Y17	Z17	X18	Y18	Z18	X19	Y19	Z19	X20	Y20	Z20	X21	Y21	Z21	X22	Y22	Z22
18	0.6040540540540541	0.9988446798122127	-0.7066602425591947	0.0	0.9684074787282138	-0.711506360858106	0.0	1.0344546388226108	-1.057289841901856	0.0	0.9253381344665056	-1.089182372963387	0.0			0.0			0.0			0.0	1.0390390748095413	-0.7180918707821791	0.0	1.0470418422927563	-1.0517971572870712	0.0	0.89893701675896	-1.088512479342293	0.0			0.0			0.0	0.74603759765625	-1.06143896484375	0.0	1.0457545911302752	-0.1690509978143242	0.0	1.1284635708132367	-0.019652684269348755	0.0	1.1283424963893738	-0.05591873854253387	0.0	0.964103899816564	-0.22016429063720694	0.0	0.9228746003881794	-0.48383645219454346	0.0	1.1351546825941834	-0.6976671504379587	0.0	1.0869456557604253	-0.25849539355028	0.0	1.0858386539646312	-0.4854214696995363	0.0	1.190519479994291	-0.43599878323088337	0.0
19	0.6376126126126127	0.9913251371145797	-0.7089384320111435	0.0	0.9578749468312684	-0.7130315313279346	0.0	1.0300437732880012	-1.0565935979627974	0.0	0.9253381342843571	-1.0891823729196974	0.0			0.0			0.0			0.0	1.032434980690036	-0.7200406089957658	0.0	1.0286598584609703	-1.0511095408755293	0.0	0.8989337330695458	-1.088424619899579	0.0			0.0			0.0	0.74603759765625	-1.06143896484375	0.0	1.0427155951482732	-0.1731841897643103	0.0	1.124438264229951	-0.020265815963002014	0.0	1.1221060971629657	-0.06417039406891352	0.0	0.9575418684014593	-0.22603636320934714	0.0	0.908569708915943	-0.48557002070769006	0.0	1.1009828915854285	-0.7088206779139157	0.0	1.0842097529787658	-0.26551728819734094	0.0	1.081238582413988	-0.4904730506977559	0.0	1.1836584602684321	-0.44347913583473114	0.0
20	0.6711711711711712	0.9851783087204123	-0.7095998122289907	0.0	0.9484076039572972	-0.7133382707296346	0.0	1.0251844034937068	-1.05557515622514	0.0	0.9253381341576806	-1.0891823728969885	0.0			0.0			0.0			0.0	1.028193360428168	-0.720872985038648	0.0	1.0130195648028544	-1.0503420830479857	0.0	0.89858698183632	-1.0881732856946909	0.0			0.0			0.0	0.74603759765625	-1.06143896484375	0.0	1.0397940939996502	-0.17717288683739246	0.0	1.1208574452050621	-0.021178824175479814	0.0	1.117226233353294	-0.07151041288792578	0.0	0.9518098191182438	-0.23047966326266955	0.0	0.8960131008750242	-0.4864933399650605	0.0	1.0652011271219326	-0.7183840491696656	0.0	1.0814341875526756	-0.2716544912763134	0.0	1.075619594488277	-0.4953737968622509	0.0	1.176841108772394	-0.4507081143093506	0.0
21	0.7047297297297298	0.9808790761906997	-0.7086375780661909	0.0	0.9410654941730334	-0.7124080015284203	0.0	1.0203859899534091	-1.0542569749785957	0.0	0.9253381342481837	-1.089182372939948	0.0			0.0			0.0			0.0	1.0259221391440079	-0.7203861974895371	0.0	1.001141204006529	-1.0494479243139716	0.0	0.8976348386973224	-1.0876902191222397	0.0			0.0			0.0	0.74603759765625	-1.06143896484375	0.0	1.037060508048148	-0.18065818964963487	0.0	1.1175939236814558	-0.02213244053119466	0.0	1.1133525747808197	-0.07778967686388051	0.0	0.9469136428675748	-0.23356712963270557	0.0	0.88515959644758	-0.486426672356393	0.0	1.028546851229264	-0.7260745641280867	0.0	1.0786100543365351	-0.2766598676392801	0.0	1.068898345433291	-0.49985454664567885	0.0	1.1703254655392596	-0.4573024148743022	0.0
22	0.7382882882882884	0.9783742237601072	-0.7064456897969859	0.0	0.9366808572374543	-0.7105047333484498	0.0	1.0167692089085762	-1.0528314057534778	0.0	0.9253381348056421	-1.0891823731139072	0.0			0.0			0.0			0.0	1.024560531908029	-0.7186914292456299	0.0	0.9926604545277474	-1.048623591279259	0.0	0.8958290098415588	-1.0869482636888737	0.0			0.0			0.0	0.74603759765625	-1.06143896484375	0.0	1.034619289765188	-0.18351224601441316	0.0	1.114608619759437	-0.022785666291547914	0.0	1.1101117950754942	-0.08289405327952581	0.0	0.9428379676163174	-0.23551560995717183	0.0	0.8757747709737741	-0.48536621890473036	0.0	0.9919379883816862	-0.7318699965877788	0.0	1.0757783144892088	-0.28057533217269437	0.0	1.061382683245189	-0.5035895668908544	0.0	1.1642250965757157	-0.4629478564980617	0.0
23	0.7718468468468469	0.9771018177239389	-0.7036572956934862	0.0	0.9353490179192412	-0.7079338715680088	0.0	1.0156189989829312	-1.0515791659208442	0.0	0.9253381361299128	-1.089182373491504	0.0			0.0			0.0			0.0	1.023060679045218	-0.7160534600516183	0.0	0.9856078847613927	-1.04820856949187	0.0	0.8930497703965854	-1.085982985998494	0.0			0.0			0.0	0.74603759765625	-1.06143896484375	0.0	1.032552844054088	-0.18584164484277543	0.0	1.1119055394168254	-0.022887120727529377	0.0	1.1072852861293736	-0.08686065472420725	0.0	0.9394578767739087	-0.2366843970936427	0.0	0.8675686083513497	-0.48348913982601177	0.0	0.9563495628017151	-0.7359399703139449	0.0	1.0728905326633216	-0.2837056887336791	0.0	1.0536899984586063	-0.5064939203918135	0.0	1.158577934630762	-0.46754260953888177	0.0
24	0.8054054054054055	0.9763873247277586	-0.7009346915828449	0.0	0.9362891468273811	-0.7050415769982137	0.0	1.016941217069757	-1.0506920677462814	0.0	0.9253381384461761	-1.0891823741155973	0.0			0.0			0.0			0.0	1.0210591897960177	-0.7129148434570878	0.0	0.9783922368586465	-1.04830984389728	0.0	0.8893935213702507	-1.0848763672436048	0.0			0.0			0.0	0.74603759765625	-1.06143896484375	0.0	1.0308776873046075	-0.18788126784650208	0.0	1.1093938557183922	-0.022463672557211066	0.0	1.1047931260839667	-0.08992195431508693	0.0	0.9365657481661338	-0.23749420827663895	0.0	0.8603043929846238	-0.4810586115451737	0.0	0.9226916779912541	-0.7384235845111815	0.0	1.0698771356022394	-0.28645779040105546	0.0	1.0464281393494828	-0.5086996010090551	0.0	1.1534984673237785	-0.4711817329065748	0.0
25	0.8389639639639641	0.9756967733808382	-0.6987958605808587	0.0	0.9381405890250745	-0.7022622396513941	0.0	1.019203438553438	-1.0501700271044823	0.0	0.9253381416515246	-1.0891823749288925	0.0			0.0			0.0			0.0	1.0188312696090718	-0.709890101713055	0.0	0.9714736652534742	-1.0486447738401123	0.0	0.8852105286670656	-1.0837250631902984	0.0			0.0			0.0	0.74603759765625	-1.06143896484375	0.0	1.029565242569243	-0.18987718994850333	0.0	1.1068954231599335	-0.0218073225567794	0.0	1.102548743479407	-0.09240611292865021	0.0	0.9339019003204438	-0.2383022675729857	0.0	0.8538092125456431	-0.47835904506358	0.0	0.8917683974335923	-0.7394527717976636	0.0	1.0668543794314482	-0.28919368509091736	0.0	1.0400046108168404	-0.5102968179537932	0.0	1.1491150286995586	-0.47403167677459174	0.0
26	0.8725225225225226	0.974546690233482	-0.6974955082921855	0.0	0.93933979124936	-0.6999216468777245	0.0	1.020564077690173	-1.0499341372767514	0.0	0.9253381449155322	-1.0891823756689263	0.0			0.0			0.0			0.0	1.0167285004996374	-0.7074823759524486	0.0	0.9662841177882988	-1.0488795127277684	0.0	0.8811558163695261	-1.082620602093763	0.0			0.0			0.0	0.74603759765625	-1.06143896484375	0.0	1.0285550191976498	-0.19200337853287297	0.0	1.1043299422490123	-0.02125132608146958	0.0	1.1004300241459297	-0.09465462332609881	0.0	0.9311878902587049	-0.23930230632573987	0.0	0.8479528976877985	-0.47563085499901164	0.0	0.8642202520782242	-0.7392214627888094	0.0	1.0641355298750679	-0.2921115212252762	0.0	1.0346663571851036	-0.5112224375186291	0.0	1.1454663753051042	-0.47621295762992844	0.0
27	0.9060810810810812	0.9724731155641775	-0.697004281391929	0.0	0.9386002910037157	-0.6981208413727795	0.0	1.0197407090460777	-1.0499704992383645	0.0	0.925338146188174	-1.0891823757477754	0.0			0.0			0.0			0.0	1.0147702543105543	-0.7058798806174637	0.0	0.9640470482354618	-1.048961643345641	0.0	0.8782786749621828	-1.0816383099021314	0.0			0.0			0.0	0.74603759765625	-1.06143896484375	0.0	1.0277117840108374	-0.19431664620759725	0.0	1.101800150523239	-0.021022715021567405	0.0	1.0983810276617105	-0.09695842777177113	0.0	0.9282792402547266	-0.24048751563141166	0.0	0.8426516524378609	-0.4729951271923152	0.0	0.840527785053715	-0.7379036486064142	0.0	1.0619965337105772	-0.295158991000052	0.0	1.0305527459923238	-0.5114655889647006	0.0	1.142535899701095	-0.4778243391742328	0.0
28	0.9396396396396398	0.9693498705262766	-0.6971702964073008	0.0	0.9355527496191786	-0.6969252011700637	0.0	1.0159876793143072	-1.050195299705886	0.0	0.9253381418049476	-1.0891823741733857	0.0			0.0			0.0			0.0	1.0127706826861134	-0.7050915534194131	0.0	0.9661386325727558	-1.0489633544626398	0.0	0.8780547782453006	-1.0808194027931934	0.0			0.0			0.0	0.74603759765625	-1.06143896484375	0.0	1.0268315054649506	-0.19672793125896446	0.0	1.0994483567035496	-0.021205436145364943	0.0	1.0964347189640455	-0.09942697435982709	0.0	0.9252392645340806	-0.24171161038403724	0.0	0.8378821940024274	-0.4704730240526827	0.0	0.8210753518712355	-0.7356382884296859	0.0	1.060514537183367	-0.29807915238883104	0.0	1.0276895466299583	-0.5112638562617252	0.0	1.140310690351864	-0.47902276562153706	0.0
29	0.9731981981981983	0.9656801138393701	-0.6978706353268981	0.0	0.9309920867812681	-0.696467677882394	0.0	1.0089673079903214	-1.0502594258799285	0.0	0.9253381265855682	-1.0891823696231466	0.0			0.0			0.0			0.0	1.0107647538426952	-0.705078968589475	0.0	0.9733189919989839	-1.04874839518358	0.0	0.8822239466515959	-1.0801930903680266	0.0			0.0			0.0	0.74603759765625	-1.06143896484375	0.0	1.0257293876512845	-0.19900053111367913	0.0	1.097270792880277	-0.021660220746962885	0.0	1.094596276257694	-0.10190164816846582	0.0	0.9222072229496763	-0.24280961838939022	0.0	0.8336805763228871	-0.46809872779658823	0.0	0.8061490145212874	-0.7327190144560902	0.0	1.0596034646220132	-0.3005657273721305	0.0	1.025882174811927	-0.5109539478462756	0.0	1.1387427251891027	-0.4799828504925007	0.0
